<svg width="60" xmlns="http://www.w3.org/2000/svg" height="60" id="screenshot-05d51c17-ebd4-8083-8008-324bad8dfd26" viewBox="0 0 60 60" xmlns:xlink="http://www.w3.org/1999/xlink" fill="none" version="1.1"><g id="shape-05d51c17-ebd4-8083-8008-324bad8dfd26" rx="0" ry="0"><g id="shape-9001c962-a4c4-8015-8008-31a19ae9f4dd"><g class="fills" id="fills-9001c962-a4c4-8015-8008-31a19ae9f4dd"><ellipse cx="30" cy="30" rx="30" ry="30" transform="matrix(1.000000, 0.000000, 0.000000, 1.000000, 0.000000, 0.000000)" style="fill: rgb(0, 0, 0); fill-opacity: 1;"/></g></g><g id="shape-a75699c8-d9e5-80f8-8008-3299b8ce171b"><g class="fills" id="fills-a75699c8-d9e5-80f8-8008-3299b8ce171b"><path d="M22.192291259765625,26.39178466796875L22.192291259765625,20.70233154296875L30.00164794921875,16.36358642578125L37.804962158203125,20.703826904296875L37.807891845703125,25.0439453125L37.806884765625,26.3912353515625L42.95159912109375,29.25262451171875L42.9547119140625,33.592681884765625L42.95159912109375,37.93255615234375L35.148284912109375,42.27264404296875L29.99853515625,39.41162109375L24.85455322265625,42.27264404296875L17.0452880859375,37.934295654296875L17.0452880859375,29.2510986328125L22.192291259765625,26.39178466796875ZM18.8203125,30.238861083984375L18.8203125,36.94647216796875L24.854278564453125,40.29876708984375L28.22296142578125,38.425140380859375L27.33929443359375,37.934051513671875L27.33929443359375,37.43865966796875L27.33929443359375,32.244842529296875L22.192291259765625,29.3853759765625L22.192291259765625,28.36529541015625L18.8203125,30.238861083984375ZM37.805694580078125,28.36456298828125L37.804962158203125,29.383819580078125L32.660064697265625,32.24542236328125L32.66070556640625,33.592681884765625L32.657958984375,37.93255615234375L31.77410888671875,38.4241943359375L35.147918701171875,40.29876708984375L41.177764892578125,36.945159912109375L41.1796875,33.592681884765625L41.177764892578125,30.240203857421875L37.805694580078125,28.36456298828125ZM23.966949462890625,21.68994140625L23.966949462890625,25.405670166015625L24.85455322265625,24.91241455078125L29.99853515625,27.773529052734375L35.148284912109375,24.91241455078125L36.032867431640625,25.404327392578125L36.0333251953125,25.0439453125L36.030670166015625,21.691497802734375L30.00128173828125,18.33770751953125L23.966949462890625,21.68994140625ZM23.966949462890625,28.397735595703125L27.33929443359375,30.271148681640625L27.33929443359375,29.74639892578125L27.33929443359375,29.2510986328125L28.222686767578125,28.760009765625L24.854278564453125,26.886444091796875L23.966949462890625,27.379180908203125L23.966949462890625,28.397735595703125ZM29.11395263671875,36.9462890625L29.9981689453125,37.437713623046875L30.884124755859375,36.945159912109375L30.88604736328125,33.592681884765625L30.8858642578125,33.232086181640625L30.00164794921875,33.723907470703125L29.11395263671875,33.23089599609375L29.11395263671875,36.9462890625ZM31.77410888671875,28.76092529296875L32.657958984375,29.25262451171875L32.65869140625,30.271881103515625L36.030670166015625,28.39642333984375L36.031494140625,27.377838134765625L35.147735595703125,26.886444091796875L31.77410888671875,28.76092529296875ZM29.11395263671875,30.238861083984375L29.11395263671875,31.257080078125L30.00128173828125,31.750030517578125L30.884490966796875,31.25872802734375L30.884124755859375,30.240203857421875L29.9981689453125,29.747406005859375L29.11395263671875,30.238861083984375Z" style="fill-rule: evenodd; clip-rule: evenodd; stroke-linejoin: round; stroke-miterlimit: 2; fill: rgb(255, 255, 255);"/></g></g></g></svg>