<svg width="1024" xmlns="http://www.w3.org/2000/svg" height="1024" id="screenshot-a405260d-294c-800c-8008-354ddfc69864" viewBox="0 0 1024 1024" xmlns:xlink="http://www.w3.org/1999/xlink" fill="none" version="1.1"><g id="shape-a405260d-294c-800c-8008-354ddfc69864" rx="0" ry="0"><g id="shape-a405260d-294c-800c-8008-354e9b11f83e"><g class="fills" id="fills-a405260d-294c-800c-8008-354e9b11f83e"><rect rx="0" ry="0" x="0" y="0" transform="matrix(1.000000, 0.000000, 0.000000, 1.000000, 0.000000, 0.000000)" width="1024" height="1024" style="fill: rgb(0, 0, 0); fill-opacity: 1;"/></g></g><g id="shape-a405260d-294c-800c-8008-354ddfc69866" xml:space="preserve" rx="0" ry="0" style="fill: rgb(0, 0, 0);"><g id="shape-a405260d-294c-800c-8008-354ddfc72b2d"><g class="fills" id="fills-a405260d-294c-800c-8008-354ddfc72b2d"><path d="M399.095947265625,460.62939453125L399.095947265625,378.57305908203125L511.7265625,315.997314453125L624.270263671875,378.5946044921875L624.3125,441.19012451171875L624.298095703125,460.6214599609375L698.497802734375,501.88995361328125L698.542724609375,564.484619140625L698.497802734375,627.0765991210938L585.954345703125,689.6715698242188L511.681884765625,648.4083251953125L437.492431640625,689.6715698242188L324.863037109375,627.1016845703125L324.863037109375,501.86798095703125L399.095947265625,460.62939453125ZM350.46337890625,516.114013671875L350.46337890625,612.854736328125L437.488525390625,661.2032470703125L486.073486328125,634.180908203125L473.328857421875,627.09814453125L473.328857421875,619.953369140625L473.328857421875,545.0453491210938L399.095947265625,503.8045654296875L399.095947265625,489.0924072265625L350.46337890625,516.114013671875ZM624.28076171875,489.08184814453125L624.270263671875,503.7821044921875L550.06787109375,545.0537109375L550.076904296875,564.484619140625L550.037353515625,627.0765991210938L537.2900390625,634.167236328125L585.948974609375,661.2032470703125L672.91455078125,612.8358154296875L672.9423828125,564.484619140625L672.91455078125,516.1333618164062L624.28076171875,489.08184814453125ZM424.69091796875,392.81689453125L424.69091796875,446.4071044921875L437.492431640625,439.29315185546875L511.681884765625,480.55767822265625L585.954345703125,439.29315185546875L598.712158203125,446.38775634765625L598.71875,441.19012451171875L598.680419921875,392.83935546875L511.721435546875,344.46923828125L424.69091796875,392.81689453125ZM424.69091796875,489.560302734375L473.328857421875,516.5796508789062L473.328857421875,509.01141357421875L473.328857421875,501.86798095703125L486.069580078125,494.78521728515625L437.488525390625,467.763671875L424.69091796875,474.87017822265625L424.69091796875,489.560302734375ZM498.923828125,612.8521118164062L511.676513671875,619.939697265625L524.454345703125,612.8358154296875L524.48193359375,564.484619140625L524.479248046875,559.2838745117188L511.7265625,566.377197265625L498.923828125,559.2667236328125L498.923828125,612.8521118164062ZM537.2900390625,494.79840087890625L550.037353515625,501.88995361328125L550.048095703125,516.5902099609375L598.680419921875,489.5413818359375L598.6923828125,474.85076904296875L585.9462890625,467.763671875L537.2900390625,494.79840087890625ZM498.923828125,516.114013671875L498.923828125,530.79931640625L511.721435546875,537.9088745117188L524.45947265625,530.8230590820312L524.454345703125,516.1333618164062L511.676513671875,509.02593994140625L498.923828125,516.114013671875Z" style="fill-rule: evenodd; clip-rule: evenodd; stroke-linejoin: round; stroke-miterlimit: 2; fill: rgb(255, 255, 255);"/></g></g></g></g></svg>